<svg width="33" height="18" viewBox="0 0 33 18" fill="none" xmlns="http://www.w3.org/2000/svg">
<path d="M6.94434 9.3125C6.66113 9.64941 6.32178 9.92041 5.92627 10.1255C5.53564 10.3306 5.10596 10.4331 4.63721 10.4331C4.02197 10.4331 3.48486 10.2817 3.02588 9.979C2.57178 9.67627 2.22021 9.25146 1.97119 8.70459C1.72217 8.15283 1.59766 7.54492 1.59766 6.88086C1.59766 6.16797 1.73193 5.52588 2.00049 4.95459C2.27393 4.3833 2.65967 3.94629 3.15771 3.64355C3.65576 3.34082 4.23682 3.18945 4.90088 3.18945C5.95557 3.18945 6.78564 3.58496 7.39111 4.37598C8.00146 5.16211 8.30664 6.23633 8.30664 7.59863V7.99414C8.30664 10.0693 7.89648 11.5854 7.07617 12.5425C6.25586 13.4946 5.01807 13.9829 3.36279 14.0073H3.09912V12.8647H3.38477C4.50293 12.8452 5.3623 12.5547 5.96289 11.9932C6.56348 11.4268 6.89062 10.5332 6.94434 9.3125ZM4.85693 9.3125C5.31104 9.3125 5.72852 9.17334 6.10938 8.89502C6.49512 8.6167 6.77588 8.27246 6.95166 7.8623V7.32031C6.95166 6.43164 6.75879 5.70898 6.37305 5.15234C5.9873 4.5957 5.49902 4.31738 4.9082 4.31738C4.3125 4.31738 3.83398 4.54687 3.47266 5.00586C3.11133 5.45996 2.93066 6.06055 2.93066 6.80762C2.93066 7.53516 3.104 8.13574 3.45068 8.60938C3.80225 9.07812 4.271 9.3125 4.85693 9.3125ZM10.2695 13.2896C10.2695 13.0552 10.3379 12.8599 10.4746 12.7036C10.6162 12.5474 10.8262 12.4692 11.1045 12.4692C11.3828 12.4692 11.5928 12.5474 11.7344 12.7036C11.8809 12.8599 11.9541 13.0552 11.9541 13.2896C11.9541 13.5142 11.8809 13.7021 11.7344 13.8535C11.5928 14.0049 11.3828 14.0806 11.1045 14.0806C10.8262 14.0806 10.6162 14.0049 10.4746 13.8535C10.3379 13.7021 10.2695 13.5142 10.2695 13.2896ZM10.2769 6.82227C10.2769 6.58789 10.3452 6.39258 10.4819 6.23633C10.6235 6.08008 10.8335 6.00195 11.1118 6.00195C11.3901 6.00195 11.6001 6.08008 11.7417 6.23633C11.8882 6.39258 11.9614 6.58789 11.9614 6.82227C11.9614 7.04688 11.8882 7.23486 11.7417 7.38623C11.6001 7.5376 11.3901 7.61328 11.1118 7.61328C10.8335 7.61328 10.6235 7.5376 10.4819 7.38623C10.3452 7.23486 10.2769 7.04688 10.2769 6.82227ZM19.5273 10.4185H21.0068V11.5244H19.5273V14H18.165V11.5244H13.3091V10.7261L18.0845 3.33594H19.5273V10.4185ZM14.8472 10.4185H18.165V5.18896L18.0039 5.48193L14.8472 10.4185ZM26.6831 14H25.3208V4.96924L22.5889 5.97266V4.74219L26.4707 3.28467H26.6831V14Z" fill="black"/>
</svg>
